<svg width="132" height="21" viewBox="0 0 132 21" fill="none" xmlns="http://www.w3.org/2000/svg">
<path d="M79.7674 0.350098H84.5874L76.1935 13.1695V20.1044H71.9215V13.1695L63.5137 0.350098H68.4404L74.0962 9.17201L79.7674 0.350098Z" fill="#3B6AC8"/>
<path d="M99.2312 8.98984H106.195V10.3745C106.15 13.2407 105.07 15.6315 102.957 17.5599C100.843 19.4896 98.2128 20.4531 95.08 20.4531C91.8419 20.4531 89.1502 19.474 86.991 17.5172C84.8318 15.5604 83.7529 13.1268 83.7529 10.2194C83.7529 7.32621 84.8318 4.89268 86.991 2.93589C89.1502 0.979105 91.8419 0 95.08 0C97.6803 0 99.9603 0.64325 101.923 1.91552C103.884 3.20202 105.147 4.85141 105.709 6.87793H100.904C100.372 5.94152 99.581 5.20007 98.5626 4.64079C97.5286 4.09573 96.3724 3.81538 95.08 3.81538C93.1034 3.81538 91.4457 4.43017 90.1238 5.64693C88.8004 6.8637 88.1317 8.38644 88.1317 10.218C88.1317 12.0495 88.8004 13.5879 90.1393 14.8033C91.4627 16.02 93.1188 16.6348 95.0815 16.6348C96.6169 16.6348 97.9852 16.2577 99.1569 15.5163C100.327 14.7748 101.118 13.7829 101.53 12.5661H95.3415C95.3384 10.5923 97.0813 8.98984 99.2312 8.98984Z" fill="#3B6AC8"/>
<path d="M109.33 20.103V0.350098C111.706 0.350098 113.633 2.12188 113.633 4.30637V20.1044H109.33V20.103Z" fill="#3B6AC8"/>
<path d="M132 0.350098V4.06871H126.45V20.1044H122.162V4.06871H116.613V0.350098H132Z" fill="#3B6AC8"/>
<path d="M39.2976 14.6794H23.9927V19.9421H45.7196C45.7196 17.0347 42.8453 14.6794 39.2976 14.6794Z" fill="#3B6AC8"/>
<path d="M39.5885 7.349H6.04395V12.6117H33.8646C37.0253 12.6117 39.5885 10.255 39.5885 7.349Z" fill="#3B6AC8"/>
<path d="M27.8207 0.0184326H0V5.28112H33.5446C33.5446 2.37369 30.9814 0.0184326 27.8207 0.0184326Z" fill="#3B6AC8"/>
</svg>
